<svg width="78" height="19" viewBox="0 0 78 19" fill="none" xmlns="http://www.w3.org/2000/svg">
<path d="M8.81 10.92L8.04 15H6.91C6.71 15 6.53667 14.92 6.39 14.76C6.24333 14.6 6.17 14.4033 6.17 14.17C6.17 14.1367 6.17 14.1067 6.17 14.08C6.17667 14.0467 6.18333 14.0133 6.19 13.98L6.78 10.92H4.73L4.15 14.1C4.09 14.42 3.95333 14.65 3.74 14.79C3.52667 14.93 3.29 15 3.03 15H1.94L2.7 10.92H1.55C1.33667 10.92 1.17333 10.87 1.06 10.77C0.946667 10.6633 0.89 10.49 0.89 10.25C0.89 10.1567 0.9 10.05 0.92 9.93L1.05 9.14H2.95L3.47 6.38H1.33L1.52 5.35C1.56667 5.09667 1.67 4.91 1.83 4.79C1.99 4.66333 2.25 4.6 2.61 4.6H3.72L4.34 1.38C4.39333 1.11333 4.51667 0.906666 4.71 0.76C4.90333 0.613333 5.13 0.539999 5.39 0.539999H6.51L5.75 4.6H7.79L8.56 0.539999H9.66C9.89333 0.539999 10.0833 0.606666 10.23 0.739999C10.3767 0.873333 10.45 1.04333 10.45 1.25C10.45 1.31667 10.4467 1.36667 10.44 1.4L9.82 4.6H11.85L11.66 5.63C11.6133 5.88333 11.5067 6.07333 11.34 6.2C11.18 6.32 10.9233 6.38 10.57 6.38H9.57L9.06 9.14H10.48C10.6933 9.14 10.8533 9.19333 10.96 9.3C11.0733 9.4 11.13 9.57333 11.13 9.82C11.13 9.91333 11.12 10.02 11.1 10.14L10.98 10.92H8.81ZM4.98 9.14H7.03L7.54 6.38H5.5L4.98 9.14ZM16.9716 4.56C17.4116 4.56 17.8249 4.60667 18.2116 4.7C18.5982 4.78667 18.9516 4.91667 19.2716 5.09H22.2216V6.01C22.2216 6.16333 22.1816 6.28333 22.1016 6.37C22.0216 6.45667 21.8849 6.51667 21.6916 6.55L20.7716 6.72C20.8382 6.89333 20.8882 7.07667 20.9216 7.27C20.9616 7.46333 20.9816 7.66667 20.9816 7.88C20.9816 8.38667 20.8782 8.84667 20.6716 9.26C20.4716 9.66667 20.1916 10.0133 19.8316 10.3C19.4782 10.5867 19.0549 10.81 18.5616 10.97C18.0749 11.1233 17.5449 11.2 16.9716 11.2C16.5849 11.2 16.2082 11.1633 15.8416 11.09C15.5216 11.2833 15.3616 11.5 15.3616 11.74C15.3616 11.9467 15.4549 12.1 15.6416 12.2C15.8349 12.2933 16.0849 12.36 16.3916 12.4C16.7049 12.44 17.0582 12.4667 17.4516 12.48C17.8449 12.4867 18.2482 12.5067 18.6616 12.54C19.0749 12.5733 19.4782 12.6333 19.8716 12.72C20.2649 12.8 20.6149 12.93 20.9216 13.11C21.2349 13.29 21.4849 13.5367 21.6716 13.85C21.8649 14.1567 21.9616 14.5533 21.9616 15.04C21.9616 15.4933 21.8482 15.9333 21.6216 16.36C21.4016 16.7867 21.0782 17.1667 20.6516 17.5C20.2316 17.8333 19.7149 18.1 19.1016 18.3C18.4882 18.5067 17.7882 18.61 17.0016 18.61C16.2216 18.61 15.5449 18.5333 14.9716 18.38C14.3982 18.2333 13.9216 18.0333 13.5416 17.78C13.1682 17.5333 12.8882 17.2467 12.7016 16.92C12.5149 16.5933 12.4216 16.2533 12.4216 15.9C12.4216 15.42 12.5682 15.0167 12.8616 14.69C13.1549 14.3633 13.5616 14.1033 14.0816 13.91C13.8282 13.77 13.6249 13.5833 13.4716 13.35C13.3182 13.1167 13.2416 12.8133 13.2416 12.44C13.2416 12.2867 13.2682 12.13 13.3216 11.97C13.3749 11.8033 13.4549 11.64 13.5616 11.48C13.6749 11.32 13.8149 11.17 13.9816 11.03C14.1482 10.8833 14.3449 10.7533 14.5716 10.64C14.0516 10.36 13.6416 9.98667 13.3416 9.52C13.0482 9.05333 12.9016 8.50667 12.9016 7.88C12.9016 7.37333 13.0016 6.91667 13.2016 6.51C13.4082 6.09667 13.6916 5.74667 14.0516 5.46C14.4182 5.16667 14.8482 4.94333 15.3416 4.79C15.8416 4.63667 16.3849 4.56 16.9716 4.56ZM19.6816 15.46C19.6816 15.26 19.6216 15.0967 19.5016 14.97C19.3816 14.8433 19.2182 14.7467 19.0116 14.68C18.8049 14.6067 18.5616 14.5533 18.2816 14.52C18.0082 14.4867 17.7149 14.4633 17.4016 14.45C17.0949 14.43 16.7749 14.4133 16.4416 14.4C16.1149 14.38 15.7982 14.35 15.4916 14.31C15.2116 14.4633 14.9849 14.6467 14.8116 14.86C14.6449 15.0667 14.5616 15.3067 14.5616 15.58C14.5616 15.76 14.6049 15.9267 14.6916 16.08C14.7849 16.24 14.9282 16.3767 15.1216 16.49C15.3216 16.6033 15.5782 16.69 15.8916 16.75C16.2049 16.8167 16.5882 16.85 17.0416 16.85C17.5016 16.85 17.8982 16.8133 18.2316 16.74C18.5649 16.6733 18.8382 16.5767 19.0516 16.45C19.2716 16.33 19.4316 16.1833 19.5316 16.01C19.6316 15.8433 19.6816 15.66 19.6816 15.46ZM16.9716 9.62C17.2782 9.62 17.5449 9.58 17.7716 9.5C17.9982 9.41333 18.1849 9.29667 18.3316 9.15C18.4849 9.00333 18.5982 8.82667 18.6716 8.62C18.7516 8.41333 18.7916 8.18667 18.7916 7.94C18.7916 7.43333 18.6382 7.03333 18.3316 6.74C18.0316 6.44 17.5782 6.29 16.9716 6.29C16.3649 6.29 15.9082 6.44 15.6016 6.74C15.3016 7.03333 15.1516 7.43333 15.1516 7.94C15.1516 8.18 15.1882 8.40333 15.2616 8.61C15.3416 8.81667 15.4549 8.99667 15.6016 9.15C15.7549 9.29667 15.9449 9.41333 16.1716 9.5C16.4049 9.58 16.6716 9.62 16.9716 9.62ZM28.0131 4.58C28.6598 4.58 29.2531 4.68333 29.7931 4.89C30.3398 5.09667 30.8098 5.4 31.2031 5.8C31.5965 6.19333 31.9031 6.68 32.1231 7.26C32.3431 7.83333 32.4531 8.49 32.4531 9.23C32.4531 9.41667 32.4431 9.57333 32.4231 9.7C32.4098 9.82 32.3798 9.91667 32.3331 9.99C32.2931 10.0567 32.2365 10.1067 32.1631 10.14C32.0898 10.1667 31.9965 10.18 31.8831 10.18H25.5431C25.6165 11.2333 25.8998 12.0067 26.3931 12.5C26.8865 12.9933 27.5398 13.24 28.3531 13.24C28.7531 13.24 29.0965 13.1933 29.3831 13.1C29.6765 13.0067 29.9298 12.9033 30.1431 12.79C30.3631 12.6767 30.5531 12.5733 30.7131 12.48C30.8798 12.3867 31.0398 12.34 31.1931 12.34C31.2931 12.34 31.3798 12.36 31.4531 12.4C31.5265 12.44 31.5898 12.4967 31.6431 12.57L32.3631 13.47C32.0898 13.79 31.7831 14.06 31.4431 14.28C31.1031 14.4933 30.7465 14.6667 30.3731 14.8C30.0065 14.9267 29.6298 15.0167 29.2431 15.07C28.8631 15.1233 28.4931 15.15 28.1331 15.15C27.4198 15.15 26.7565 15.0333 26.1431 14.8C25.5298 14.56 24.9965 14.21 24.5431 13.75C24.0898 13.2833 23.7331 12.71 23.4731 12.03C23.2131 11.3433 23.0831 10.55 23.0831 9.65C23.0831 8.95 23.1965 8.29333 23.4231 7.68C23.6498 7.06 23.9731 6.52333 24.3931 6.07C24.8198 5.61 25.3365 5.24667 25.9431 4.98C26.5565 4.71333 27.2465 4.58 28.0131 4.58ZM28.0631 6.35C27.3431 6.35 26.7798 6.55333 26.3731 6.96C25.9665 7.36667 25.7065 7.94333 25.5931 8.69H30.2331C30.2331 8.37 30.1898 8.07 30.1031 7.79C30.0165 7.50333 29.8831 7.25333 29.7031 7.04C29.5231 6.82667 29.2965 6.66 29.0231 6.54C28.7498 6.41333 28.4298 6.35 28.0631 6.35ZM34.4567 15V4.74H35.9667C36.2867 4.74 36.4967 4.89 36.5967 5.19L36.7667 6C36.9734 5.78667 37.1901 5.59333 37.4167 5.42C37.6501 5.24667 37.8934 5.09667 38.1467 4.97C38.4067 4.84333 38.6834 4.74667 38.9767 4.68C39.2701 4.61333 39.5901 4.58 39.9367 4.58C40.4967 4.58 40.9934 4.67667 41.4267 4.87C41.8601 5.05667 42.2201 5.32333 42.5067 5.67C42.8001 6.01 43.0201 6.42 43.1667 6.9C43.3201 7.37333 43.3967 7.89667 43.3967 8.47V15H40.9267V8.47C40.9267 7.84333 40.7801 7.36 40.4867 7.02C40.2001 6.67333 39.7667 6.5 39.1867 6.5C38.7601 6.5 38.3601 6.59667 37.9867 6.79C37.6134 6.98333 37.2601 7.24667 36.9267 7.58V15H34.4567ZM50.0639 4.58C50.7106 4.58 51.3039 4.68333 51.8439 4.89C52.3906 5.09667 52.8606 5.4 53.2539 5.8C53.6472 6.19333 53.9539 6.68 54.1739 7.26C54.3939 7.83333 54.5039 8.49 54.5039 9.23C54.5039 9.41667 54.4939 9.57333 54.4739 9.7C54.4606 9.82 54.4306 9.91667 54.3839 9.99C54.3439 10.0567 54.2872 10.1067 54.2139 10.14C54.1406 10.1667 54.0472 10.18 53.9339 10.18H47.5939C47.6672 11.2333 47.9506 12.0067 48.4439 12.5C48.9372 12.9933 49.5906 13.24 50.4039 13.24C50.8039 13.24 51.1472 13.1933 51.4339 13.1C51.7272 13.0067 51.9806 12.9033 52.1939 12.79C52.4139 12.6767 52.6039 12.5733 52.7639 12.48C52.9306 12.3867 53.0906 12.34 53.2439 12.34C53.3439 12.34 53.4306 12.36 53.5039 12.4C53.5772 12.44 53.6406 12.4967 53.6939 12.57L54.4139 13.47C54.1406 13.79 53.8339 14.06 53.4939 14.28C53.1539 14.4933 52.7972 14.6667 52.4239 14.8C52.0572 14.9267 51.6806 15.0167 51.2939 15.07C50.9139 15.1233 50.5439 15.15 50.1839 15.15C49.4706 15.15 48.8072 15.0333 48.1939 14.8C47.5806 14.56 47.0472 14.21 46.5939 13.75C46.1406 13.2833 45.7839 12.71 45.5239 12.03C45.2639 11.3433 45.1339 10.55 45.1339 9.65C45.1339 8.95 45.2472 8.29333 45.4739 7.68C45.7006 7.06 46.0239 6.52333 46.4439 6.07C46.8706 5.61 47.3872 5.24667 47.9939 4.98C48.6072 4.71333 49.2972 4.58 50.0639 4.58ZM50.1139 6.35C49.3939 6.35 48.8306 6.55333 48.4239 6.96C48.0172 7.36667 47.7572 7.94333 47.6439 8.69H52.2839C52.2839 8.37 52.2406 8.07 52.1539 7.79C52.0672 7.50333 51.9339 7.25333 51.7539 7.04C51.5739 6.82667 51.3472 6.66 51.0739 6.54C50.8006 6.41333 50.4806 6.35 50.1139 6.35ZM56.5075 15V4.74H57.9575C58.2108 4.74 58.3875 4.78667 58.4875 4.88C58.5875 4.97333 58.6542 5.13333 58.6875 5.36L58.8375 6.6C59.2042 5.96667 59.6342 5.46667 60.1275 5.1C60.6208 4.73333 61.1742 4.55 61.7875 4.55C62.2942 4.55 62.7142 4.66667 63.0475 4.9L62.7275 6.75C62.7075 6.87 62.6642 6.95667 62.5975 7.01C62.5308 7.05667 62.4408 7.08 62.3275 7.08C62.2275 7.08 62.0908 7.05667 61.9175 7.01C61.7442 6.96333 61.5142 6.94 61.2275 6.94C60.7142 6.94 60.2742 7.08333 59.9075 7.37C59.5408 7.65 59.2308 8.06333 58.9775 8.61V15H56.5075ZM72.4186 15H71.3086C71.0753 15 70.8919 14.9667 70.7586 14.9C70.6253 14.8267 70.5253 14.6833 70.4586 14.47L70.2386 13.74C69.9786 13.9733 69.7219 14.18 69.4686 14.36C69.2219 14.5333 68.9653 14.68 68.6986 14.8C68.4319 14.92 68.1486 15.01 67.8486 15.07C67.5486 15.13 67.2153 15.16 66.8486 15.16C66.4153 15.16 66.0153 15.1033 65.6486 14.99C65.2819 14.87 64.9653 14.6933 64.6986 14.46C64.4386 14.2267 64.2353 13.9367 64.0886 13.59C63.9419 13.2433 63.8686 12.84 63.8686 12.38C63.8686 11.9933 63.9686 11.6133 64.1686 11.24C64.3753 10.86 64.7153 10.52 65.1886 10.22C65.6619 9.91333 66.2919 9.66 67.0786 9.46C67.8653 9.26 68.8419 9.14667 70.0086 9.12V8.52C70.0086 7.83333 69.8619 7.32667 69.5686 7C69.2819 6.66667 68.8619 6.5 68.3086 6.5C67.9086 6.5 67.5753 6.54667 67.3086 6.64C67.0419 6.73333 66.8086 6.84 66.6086 6.96C66.4153 7.07333 66.2353 7.17667 66.0686 7.27C65.9019 7.36333 65.7186 7.41 65.5186 7.41C65.3519 7.41 65.2086 7.36667 65.0886 7.28C64.9686 7.19333 64.8719 7.08667 64.7986 6.96L64.3486 6.17C65.5286 5.09 66.9519 4.55 68.6186 4.55C69.2186 4.55 69.7519 4.65 70.2186 4.85C70.6919 5.04333 71.0919 5.31667 71.4186 5.67C71.7453 6.01667 71.9919 6.43333 72.1586 6.92C72.3319 7.40667 72.4186 7.94 72.4186 8.52V15ZM67.6186 13.46C67.8719 13.46 68.1053 13.4367 68.3186 13.39C68.5319 13.3433 68.7319 13.2733 68.9186 13.18C69.1119 13.0867 69.2953 12.9733 69.4686 12.84C69.6486 12.7 69.8286 12.5367 70.0086 12.35V10.62C69.2886 10.6533 68.6853 10.7167 68.1986 10.81C67.7186 10.8967 67.3319 11.01 67.0386 11.15C66.7453 11.29 66.5353 11.4533 66.4086 11.64C66.2886 11.8267 66.2286 12.03 66.2286 12.25C66.2286 12.6833 66.3553 12.9933 66.6086 13.18C66.8686 13.3667 67.2053 13.46 67.6186 13.46ZM77.4773 0.139999V15H75.0073V0.139999H77.4773Z" fill="black"/>
</svg>
